PathFileType	4	(X/Y/Z)	c:/Users/goper/Files/vsCode/490R/osim_files/C10/C10_Static.trc
DataRate	CameraRate	NumFrames	NumMarkers	Units                	OrigDataRate	OrigDataStartFrame	OrigNumFrames
250.00	250.00	7	36	mm	250.0	1479	1971
                Frame#	Time	LPSIS			LASIS			LTH1			LTH2			LTH3			LTH4			LLFE			LMFE			LSH1			LSH2			LSH3			LSH4			LLMAL			LMMAL			LCAL			LMTP5			LTOE			LMTP1			RPSIS			RASIS			RTH1			RTH2			RTH3			RTH4			RLFE			RMFE			RSH1			RSH2			RSH3			RSH4			RLMAL			RMMAL			RCAL			RMTP1			RTOE			RMTP5		
		X1	Y1	Z1	X2	Y2	Z2	X3	Y3	Z3	X4	Y4	Z4	X5	Y5	Z5	X6	Y6	Z6	X7	Y7	Z7	X8	Y8	Z8	X9	Y9	Z9	X10	Y10	Z10	X11	Y11	Z11	X12	Y12	Z12	X13	Y13	Z13	X14	Y14	Z14	X15	Y15	Z15	X16	Y16	Z16	X17	Y17	Z17	X18	Y18	Z18	X19	Y19	Z19	X20	Y20	Z20	X21	Y21	Z21	X22	Y22	Z22	X23	Y23	Z23	X24	Y24	Z24	X25	Y25	Z25	X26	Y26	Z26	X27	Y27	Z27	X28	Y28	Z28	X29	Y29	Z29	X30	Y30	Z30	X31	Y31	Z31	X32	Y32	Z32	X33	Y33	Z33	X34	Y34	Z34	X35	Y35	Z35	X36	Y36	Z36

1479	5.91200	-324.74414	1026.88293	441.40024	-182.17189	1001.07629	290.53458	-269.85938	795.65009	253.43329	-264.91791	749.61847	243.70622	-209.17374	796.01825	252.10651	-213.29225	749.14807	248.21368	-243.89780	492.77737	271.57870	-229.80586	466.82526	385.84464	-307.06287	417.89175	256.65472	-308.18762	370.69498	247.14270	-245.57687	411.64679	259.71240	-254.41188	367.57098	250.72552	-284.58667	92.67366	239.23703	-272.87363	89.91821	319.33304	-347.70355	38.43911	278.97327	-177.15755	28.27095	206.41670	-121.95422	47.07045	266.46994	-156.44168	26.13476	315.71844	-313.49319	1028.41223	521.48535	-145.75363	997.82526	631.88037	-245.22733	757.25140	688.61108	-237.51375	714.20526	693.10266	-184.07812	760.96057	690.99927	-183.90967	717.06604	695.48083	-219.36441	486.08832	666.71918	-207.48857	463.45651	556.22034	-296.85971	404.65250	689.97180	-293.09100	361.54669	699.09003	-234.01268	400.51321	688.32764	-240.88733	360.18915	697.34705	-274.39716	91.22356	699.33472	-255.21013	89.43893	619.65564	-329.47321	40.56981	664.42419	-134.94286	33.48017	637.16931	-104.53030	45.97615	678.80157	-156.33173	30.67156	740.58862
1480	5.91600	-324.74072	1026.86938	441.47375	-182.18396	1001.04437	290.59222	-269.88440	795.62390	253.50012	-264.95361	749.58795	243.78340	-209.19926	796.01282	252.16986	-213.31819	749.16217	248.25986	-243.88727	492.75064	271.64349	-229.76814	466.82455	385.87271	-306.87595	418.05032	256.54758	-308.25272	370.65829	247.18840	-245.56628	411.64734	259.75333	-254.40781	367.54596	250.72813	-284.57889	92.66450	239.24863	-272.88580	89.91761	319.34100	-347.70889	38.42268	278.98526	-177.15486	28.24861	206.40013	-121.94523	47.05407	266.47354	-156.37932	26.17658	315.73993	-313.50049	1028.40393	521.59174	-145.71365	997.83801	631.92133	-245.17531	757.24109	688.68402	-237.49547	714.19775	693.17218	-184.01535	760.98535	691.06067	-183.84645	717.06891	695.53436	-219.36369	486.07861	666.76611	-207.49820	463.45358	556.24890	-296.81729	404.63205	690.00848	-293.04291	361.51743	699.14490	-233.98706	400.52179	688.31873	-240.82626	360.20837	697.37347	-274.39127	91.21302	699.35229	-255.20808	89.43053	619.65527	-329.46478	40.53022	664.44177	-134.96570	33.44946	637.19678	-104.52081	45.97542	678.80890	-156.31282	30.66673	740.59888
1481	5.92000	-324.76514	1026.85706	441.56760	-182.23056	1001.04102	290.64877	-269.92355	795.61414	253.56868	-264.98660	749.59296	243.82317	-209.23964	796.01526	252.19214	-213.37234	749.15381	248.29924	-243.89388	492.75769	271.68845	-229.78716	466.82376	385.92480	-306.92041	418.02933	256.64224	-308.24664	370.63751	247.23868	-245.57176	411.64767	259.79614	-254.42398	367.55713	250.77933	-284.59799	92.65780	239.26433	-272.87500	89.91669	319.37784	-347.69040	38.40906	278.97699	-177.17381	28.24534	206.40451	-121.93852	47.04360	266.46262	-156.36098	26.18286	315.76685	-313.50589	1028.39758	521.66278	-145.69215	997.85602	631.95819	-245.17021	757.23737	688.74597	-237.43964	714.18903	693.24872	-184.02988	760.97943	691.09656	-183.82976	717.08777	695.58307	-219.32965	486.08310	666.80743	-207.49554	463.44910	556.27014	-296.81659	404.62857	690.04803	-293.02789	361.52997	699.17700	-233.99385	400.50351	688.37842	-240.82948	360.19244	697.40851	-274.38470	91.22006	699.35156	-255.22150	89.39426	619.66998	-329.45328	40.52322	664.40668	-134.99925	33.42588	637.17584	-104.52756	45.96197	678.80164	-156.32220	30.66201	740.60791
1482	5.92400	-324.74890	1026.82214	441.65707	-182.26448	1001.02380	290.70908	-269.95334	795.58569	253.63318	-265.01321	749.57776	243.88589	-209.26891	796.01025	252.25804	-213.40347	749.14758	248.33842	-243.90901	492.73318	271.71808	-229.75266	466.82126	385.94171	-306.98868	417.92789	256.71231	-308.23959	370.59543	247.26617	-245.59384	411.63681	259.81381	-254.40483	367.55734	250.80051	-284.60040	92.65323	239.26382	-272.86902	89.92217	319.35776	-347.68781	38.41422	278.96887	-177.17451	28.22633	206.40622	-121.92398	47.06458	266.45270	-156.29951	26.25738	315.79221	-313.53619	1028.40942	521.72760	-145.68982	997.86713	631.99438	-245.16309	757.25317	688.77490	-237.43085	714.22040	693.31354	-183.96916	761.04022	691.15808	-183.79456	717.08978	695.63324	-219.30038	486.10925	666.84143	-207.49248	463.45187	556.30475	-296.78378	404.64429	690.07611	-293.04095	361.52332	699.19873	-233.95007	400.51767	688.38861	-240.80145	360.20294	697.41522	-274.40237	91.22600	699.35278	-255.23213	89.40433	619.66748	-329.45538	40.52742	664.41022	-134.94055	33.47352	637.16937	-104.52309	45.96314	678.78680	-156.31860	30.67007	740.60480
1483	5.92800	-324.77029	1026.84155	441.70779	-182.30925	1001.03802	290.74261	-270.00818	795.59460	253.68918	-265.05630	749.56677	243.93352	-209.34106	795.98700	252.30853	-213.45142	749.14703	248.38899	-243.92833	492.73120	271.75912	-229.75476	466.84775	385.98434	-307.03232	417.94012	256.78452	-308.26199	370.61258	247.31134	-245.60074	411.65305	259.84357	-254.43839	367.56485	250.84985	-284.60934	92.65863	239.26935	-272.88724	89.94419	319.36020	-347.67853	38.39063	278.94968	-177.19786	28.24533	206.38292	-121.93946	47.06466	266.43524	-156.26433	26.29631	315.80273	-313.54803	1028.41125	521.78577	-145.69101	997.90369	632.03992	-245.15399	757.28088	688.84375	-237.40082	714.24542	693.36121	-183.96410	761.03491	691.19165	-183.76917	717.12006	695.67407	-219.30763	486.11804	666.86743	-207.49480	463.47122	556.31537	-296.80490	404.65607	690.10156	-293.04410	361.54678	699.21936	-233.94632	400.51727	688.42279	-240.81302	360.21158	697.43121	-274.43854	91.22944	699.33881	-255.25174	89.39711	619.65594	-329.45596	40.51636	664.39734	-134.93903	33.47879	637.14240	-104.54229	45.96498	678.76495	-156.33878	30.67881	740.58752
1484	5.93200	-324.81461	1026.85779	441.74240	-182.34236	1001.01636	290.79297	-270.03119	795.56897	253.72952	-265.07999	749.54352	243.99452	-209.37169	795.98322	252.36917	-213.49538	749.14081	248.43684	-243.93219	492.71310	271.79416	-229.74420	466.82120	386.01602	-307.11600	417.85025	256.84644	-308.24893	370.59769	247.32439	-245.64217	411.63159	259.88455	-254.45354	367.53793	250.87531	-284.60901	92.65294	239.27618	-272.87692	89.94672	319.36713	-347.67084	38.39606	278.94254	-177.20276	28.24125	206.37305	-121.93134	47.06770	266.41470	-156.34943	26.26613	315.72086	-313.57446	1028.41406	521.85040	-145.68237	997.90375	632.07227	-245.11682	757.28821	688.86719	-237.41368	714.24817	693.38904	-183.96327	761.04260	691.23901	-183.75385	717.11127	695.69550	-219.26854	486.14624	666.89203	-207.51808	463.45886	556.32867	-296.81906	404.65225	690.11096	-293.06979	361.55627	699.22290	-233.93529	400.52289	688.40619	-240.77811	360.19836	697.43115	-274.44223	91.22202	699.32855	-255.26170	89.38185	619.66028	-329.46216	40.51423	664.36536	-134.94797	33.47994	637.14117	-104.53584	45.97570	678.75208	-156.32755	30.68558	740.57416
1485	5.93600	-324.85065	1026.86963	441.78958	-182.39632	1001.01514	290.85059	-270.08554	795.56451	253.77461	-265.14828	749.54053	244.05388	-209.43835	795.98700	252.40962	-213.54427	749.14056	248.49080	-243.96881	492.72433	271.82516	-229.74738	466.83725	386.04724	-307.17502	417.86667	256.94336	-308.27237	370.60837	247.35426	-245.66429	411.64685	259.92618	-254.50543	367.55188	250.90211	-284.63251	92.65154	239.27170	-272.88223	89.96039	319.37778	-347.68558	38.42201	278.93188	-177.21448	28.23108	206.38274	-121.92695	47.09109	266.40445	-156.26178	26.33337	315.75729	-313.60583	1028.42346	521.90369	-145.65851	997.93323	632.10278	-245.07661	757.30219	688.92065	-237.40007	714.26831	693.44464	-183.87743	761.08655	691.29816	-183.73314	717.12805	695.73236	-219.26788	486.14227	666.89587	-207.50348	463.48441	556.35071	-296.80264	404.65793	690.15747	-293.07700	361.54733	699.23645	-233.92693	400.52228	688.44647	-240.77245	360.22668	697.44763	-274.44226	91.24579	699.33978	-255.27068	89.39576	619.65845	-329.50040	40.55484	664.32330	-134.94533	33.52238	637.12250	-104.53561	45.98880	678.72546	-156.33238	30.70021	740.55743
